<svg id="Capa_1" data-name="Capa 1" xmlns="http://www.w3.org/2000/svg" viewBox="0 0 226.09 110">
  <g>
    <g>
      <rect x="0.09" width="226" height="110" rx="5" fill="#52a85a"/>
      <rect x="3.59" y="3.5" width="219" height="103" rx="1.5" fill="none" stroke="#b1ddb7" stroke-width="7"/>
    </g>
    <path d="M222,80.71c4.79,0,5.8,11.66.91,20.5-.57,1.06,1.65,4.91.76,6-.68.91-15,4.07-17.47-.58-.73-1.09-8.15,2.72-8.15-1.11C198,93.44,209.85,80.71,222,80.71Z" fill="#b1ddb7"/>
    <path d="M222,29.12c4.79,0,5.8-11.66.91-20.5-.57-1.06,1.65-4.91.76-6-.68-.91-15-4.08-17.47.58C205.42,4.28,198,.46,198,4.3,198,16.39,209.85,29.12,222,29.12Z" fill="#b1ddb7"/>
    <path d="M4.12,29.12c-4.79,0-5.8-11.66-.91-20.5.57-1.06-1.65-4.91-.76-6,.68-.91,15-4.08,17.46.58.74,1.09,8.16-2.73,8.16,1.11C28.07,16.39,16.21,29.12,4.12,29.12Z" fill="#b1ddb7"/>
    <path d="M4.12,80.71c-4.79,0-5.8,11.66-.91,20.5.57,1.06-1.65,4.91-.76,6,.68.91,15,4.07,17.46-.58.74-1.09,8.16,2.73,8.16-1.11C28.07,93.44,16.21,80.71,4.12,80.71Z" fill="#b1ddb7"/>
    <g>
      <path d="M113.09,15h0a40,40,0,0,1,40,40h0a40,40,0,0,1-40,40h0a40,40,0,0,1-40-40h0A40,40,0,0,1,113.09,15Z" fill="#52a85a"/>
      <path d="M113.09,17.5h0A37.5,37.5,0,0,1,150.59,55h0a37.5,37.5,0,0,1-37.5,37.5h0A37.5,37.5,0,0,1,75.59,55h0A37.5,37.5,0,0,1,113.09,17.5Z" fill="none" stroke="#b1ddb7" stroke-width="5"/>
    </g>
  </g>
</svg>
