<svg xmlns="http://www.w3.org/2000/svg" width="226.087" height="110" viewBox="0 0 226.087 110"><defs><style>.a,.c{fill:#52a85a;stroke:#b1ddb7;}.a{stroke-width:7px;}.b{fill:#b1ddb7;}.c{stroke-width:5px;}.d{stroke:none;}.e{fill:none;}</style></defs><g transform="translate(-27.913 -774.222)"><g class="a" transform="translate(28 774.222)"><rect class="d" width="226" height="110" rx="5"/><rect class="e" x="3.5" y="3.5" width="219" height="103" rx="1.5"/></g><path class="b" d="M23.8-.354c4.789,0,5.793,11.66.908,20.5-.573,1.059,1.646,4.909.757,6.01C24.783,27.068,10.5,30.23,8,25.573,7.269,24.487-.153,28.3-.153,24.468-.153,12.375,11.7-.354,23.8-.354Z" transform="translate(226.067 855.286)"/><path class="b" d="M23.8,28.053c4.789,0,5.793-11.66.908-20.5-.573-1.059,1.646-4.909.757-6.01C24.783.631,10.5-2.53,8,2.126,7.269,3.212-.153-.6-.153,3.231-.153,15.324,11.7,28.053,23.8,28.053Z" transform="translate(226.066 775.286)"/><path class="b" d="M3.964,28.053c-4.789,0-5.793-11.66-.908-20.5.573-1.059-1.646-4.909-.757-6.01.678-.911,14.957-4.073,17.457.583.736,1.086,8.158-2.728,8.158,1.105C27.913,15.324,16.056,28.053,3.964,28.053Z" transform="translate(28.066 775.286)"/><path class="b" d="M3.964-.354c-4.789,0-5.793,11.66-.908,20.5.573,1.059-1.646,4.909-.757,6.01.678.911,14.957,4.073,17.457-.583.736-1.086,8.158,2.728,8.158-1.105C27.913,12.375,16.056-.354,3.964-.354Z" transform="translate(28.066 855.286)"/><g class="c" transform="translate(101 789.222)"><rect class="d" width="80" height="80" rx="40"/><rect class="e" x="2.5" y="2.5" width="75" height="75" rx="37.5"/></g></g></svg>