<svg id="Capa_1" data-name="Capa 1" xmlns="http://www.w3.org/2000/svg" viewBox="0 0 141.59 130.65">
  <path d="M103.43,27.22V13.75A13.71,13.71,0,0,0,89.76,0H51.85A13.72,13.72,0,0,0,38.1,13.67V27.22h-26a23.77,23.77,0,0,0-4.79,1.57,13.52,13.52,0,0,0-3.45,2.45,12.09,12.09,0,0,0-2.4,3.48A22.52,22.52,0,0,0,0,39.62V116.9a13.7,13.7,0,0,0,13.66,13.75H127.79A13.7,13.7,0,0,0,141.53,117V43.53a22.34,22.34,0,0,0-.54-6.62,14.25,14.25,0,0,0-2.78-5.06,12.51,12.51,0,0,0-3.75-3,23.31,23.31,0,0,0-5.52-1.68Zm-13.61,0H51.71V13.61H89.82Z"/>
</svg>
