<svg xmlns="http://www.w3.org/2000/svg" width="36" height="36" viewBox="0 0 36 36"><path d="M36.563,18.528a18,18,0,0,1-29.3,14.049,1.741,1.741,0,0,1-.133-2.584l.818-.818a1.745,1.745,0,0,1,2.315-.144,13.356,13.356,0,1,0-.852-20.2L13.1,12.516a1.161,1.161,0,0,1-.821,1.982H1.724A1.161,1.161,0,0,1,.562,13.337V2.785a1.161,1.161,0,0,1,1.982-.821L6.128,5.548A18,18,0,0,1,36.563,18.528ZM23.432,24.247l.713-.917a1.742,1.742,0,0,0-.306-2.444l-2.954-2.3V11.014a1.742,1.742,0,0,0-1.742-1.742H17.982a1.742,1.742,0,0,0-1.742,1.742V20.86l4.747,3.692a1.742,1.742,0,0,0,2.444-.306Z" transform="translate(-0.563 -0.563)"/></svg>