<svg xmlns="http://www.w3.org/2000/svg" width="35.991" height="36" viewBox="0 0 35.991 36"><path d="M37.52,22.5a4.631,4.631,0,0,1,2.971-4.321,18.357,18.357,0,0,0-2.221-5.352,4.693,4.693,0,0,1-1.884.4,4.621,4.621,0,0,1-4.227-6.5A18.3,18.3,0,0,0,26.816,4.5a4.627,4.627,0,0,1-8.642,0,18.358,18.358,0,0,0-5.352,2.221,4.621,4.621,0,0,1-4.227,6.5,4.541,4.541,0,0,1-1.884-.4A18.763,18.763,0,0,0,4.5,18.184a4.63,4.63,0,0,1,.009,8.641,18.358,18.358,0,0,0,2.221,5.352,4.623,4.623,0,0,1,6.1,6.1A18.465,18.465,0,0,0,18.184,40.5a4.619,4.619,0,0,1,8.623,0,18.357,18.357,0,0,0,5.352-2.221,4.627,4.627,0,0,1,6.1-6.1,18.465,18.465,0,0,0,2.221-5.352A4.653,4.653,0,0,1,37.52,22.5ZM22.58,29.984a7.5,7.5,0,1,1,7.5-7.5A7.5,7.5,0,0,1,22.58,29.984Z" transform="translate(-4.5 -4.5)"/></svg>