<svg xmlns="http://www.w3.org/2000/svg" width="58.968" height="36" viewBox="0 0 58.968 36"><g transform="translate(-4.5 -10.125)"><path d="M61.011,15.022H6.957A2.46,2.46,0,0,1,4.5,12.574h0a2.46,2.46,0,0,1,2.457-2.449H61.011a2.46,2.46,0,0,1,2.457,2.449h0A2.46,2.46,0,0,1,61.011,15.022Z" transform="translate(0 0)"/><path d="M61.011,21.772H6.957A2.46,2.46,0,0,1,4.5,19.324h0a2.46,2.46,0,0,1,2.457-2.449H61.011a2.46,2.46,0,0,1,2.457,2.449h0A2.46,2.46,0,0,1,61.011,21.772Z" transform="translate(0 8.801)"/><path d="M61.011,28.522H6.957A2.46,2.46,0,0,1,4.5,26.074h0a2.46,2.46,0,0,1,2.457-2.449H61.011a2.46,2.46,0,0,1,2.457,2.449h0A2.46,2.46,0,0,1,61.011,28.522Z" transform="translate(0 17.603)"/></g></svg>