<svg xmlns="http://www.w3.org/2000/svg" width="36" height="36" viewBox="0 0 36 36"><g transform="translate(-3.375 -3.375)"><path d="M21.375,5.8a15.571,15.571,0,1,1-11.016,4.561A15.474,15.474,0,0,1,21.375,5.8m0-2.423a18,18,0,1,0,18,18,18,18,0,0,0-18-18Z" transform="translate(0 0)"/><path d="M19.1,11.25c3.245,0,5.478,1.8,5.478,4.387a4.233,4.233,0,0,1-2.432,3.842c-1.506.874-2.016,1.514-2.016,2.622v.684h-3l-.026-.744a3.6,3.6,0,0,1,2.042-3.808c1.463-.874,2.077-1.428,2.077-2.5a2.1,2.1,0,0,0-2.328-1.861A2.189,2.189,0,0,0,16.572,16H13.5C13.561,13.214,15.62,11.25,19.1,11.25ZM16.823,26.083a1.858,1.858,0,1,1,1.852,1.783A1.812,1.812,0,0,1,16.823,26.083Z" transform="translate(2.337 1.817)"/></g></svg>