<svg id="Capa_1" data-name="Capa 1" xmlns="http://www.w3.org/2000/svg" viewBox="0 0 174.5 157.15">
  <g>
    <path d="M109.59,28.4c-1.36,0-2.72,0-4.09,0a.44.44,0,0,1-.5-.35,24.75,24.75,0,0,0-1.26-2.89,8.64,8.64,0,0,0-6.47-5.36,33.17,33.17,0,0,0-8.46-1.26H85.88c-.9.06-1.8.1-2.7.18a28.93,28.93,0,0,0-7,1.5,8.13,8.13,0,0,0-4.63,3.89,30.71,30.71,0,0,0-1.85,4,.4.4,0,0,1-.45.3q-2,0-4.08,0a1.22,1.22,0,0,0-1.39,1.05.88.88,0,0,0,0,.28c.23,1.09.45,2.17.68,3.26a1.27,1.27,0,0,0,1.36,1.16H67l-.11.17a8.31,8.31,0,0,0,.6,11,.61.61,0,0,1,.18.52c0,1.41,0,2.83,0,4.25a1.78,1.78,0,0,0,1.74,1.82h0c1.47,0,2.94,0,4.42,0a1.75,1.75,0,0,0,1.71-1.8c0-.47,0-.94,0-1.41s.1-.45.46-.45H99c.21,0,.26.07.25.26,0,.5,0,1,0,1.5a1.8,1.8,0,0,0,1.67,1.91h4.32a1.81,1.81,0,0,0,1.87-1.75V45.93a.76.76,0,0,1,.21-.55,8.32,8.32,0,0,0,.37-11.23H109a1.21,1.21,0,0,0,1.23-1c.24-1.07.47-2.14.67-3.22a1.23,1.23,0,0,0-.83-1.51A1.36,1.36,0,0,0,109.59,28.4Zm-36.47,1c.36-1,.81-1.88,1.22-2.82a5.41,5.41,0,0,1,3.52-3.06A28.89,28.89,0,0,1,85,22.23a36.88,36.88,0,0,1,9,.5,16.12,16.12,0,0,1,4.23,1.32,3.74,3.74,0,0,1,1.55,1.4,25.85,25.85,0,0,1,2.11,4.6c.09.22,0,.28-.19.26H72.8a4.71,4.71,0,0,1,.32-1ZM74,43.46a3.55,3.55,0,0,1-3.55-3.55h0A3.55,3.55,0,1,1,74,43.46Zm26.78,0A3.56,3.56,0,1,1,104.27,40,3.56,3.56,0,0,1,100.78,43.46Z" fill="#fff"/>
    <path d="M87.46,100.31c-2.14-4.33-3.92-9-6.54-13C75.59,79,69.73,71,64.22,62.82c-3.15-4.68-6.19-9.44-9-14.32C50.51,40.33,50.6,31.72,54,23.22,59.13,10.39,68.65,2.6,82.35.41c16.77-2.68,33.6,8.06,38.89,24.2,3.37,10.28,1.63,19.63-4.33,28.33-5.22,7.62-10.71,15.07-16,22.62C95.38,83.32,90.43,91.36,87.46,100.31Zm-.13-35.87A29.45,29.45,0,1,0,58,34.84v0A29.5,29.5,0,0,0,87.33,64.44Z" fill="#fff"/>
  </g>
  <g>
    <path d="M16,149.93a8,8,0,0,0,3.1-.57,6.24,6.24,0,0,0,2.31-1.65,7.12,7.12,0,0,0,1.44-2.61,11.29,11.29,0,0,0,.5-3.51v-22H32v22a17.2,17.2,0,0,1-1.11,6.27,14.08,14.08,0,0,1-3.18,4.93,14.24,14.24,0,0,1-5,3.21,20,20,0,0,1-13.35,0,14.37,14.37,0,0,1-5-3.21,13.89,13.89,0,0,1-3.16-4.93A17.41,17.41,0,0,1,0,141.59v-22H8.62v22a11.92,11.92,0,0,0,.5,3.51,7.38,7.38,0,0,0,1.45,2.63,6.27,6.27,0,0,0,2.31,1.66A8,8,0,0,0,16,149.93Z" fill="#fff"/>
    <path d="M69.1,156.74H61.28a3.3,3.3,0,0,1-3.11-1.63L52,144.32A2.52,2.52,0,0,0,49.5,143H47.3v13.75H38.68V119.57h12.1a24.57,24.57,0,0,1,6.88.83,12.65,12.65,0,0,1,4.64,2.31,8.64,8.64,0,0,1,2.62,3.5,11.71,11.71,0,0,1,.82,4.38,12,12,0,0,1-.49,3.42,10.64,10.64,0,0,1-1.43,3,11,11,0,0,1-2.33,2.43,12.34,12.34,0,0,1-3.2,1.76,7.8,7.8,0,0,1,1.58,1.09,7.42,7.42,0,0,1,1.31,1.54ZM50.78,137a8.77,8.77,0,0,0,3-.44,5.34,5.34,0,0,0,2-1.24A4.59,4.59,0,0,0,57,133.51a6.86,6.86,0,0,0,.36-2.29,4.78,4.78,0,0,0-1.59-3.82A7.44,7.44,0,0,0,50.78,126H47.31v11Z" fill="#fff"/>
    <path d="M85.91,119.57a26.33,26.33,0,0,1,6.56.71,12.38,12.38,0,0,1,4.41,2,7.57,7.57,0,0,1,2.49,3.16,10.79,10.79,0,0,1,.78,4.16,8.18,8.18,0,0,1-.36,2.41,6.79,6.79,0,0,1-1.12,2.17,8.65,8.65,0,0,1-2,1.85,12.39,12.39,0,0,1-2.88,1.46,10.25,10.25,0,0,1,5.43,2.88,7.44,7.44,0,0,1,1.77,5.15,10.84,10.84,0,0,1-.92,4.42,10,10,0,0,1-2.7,3.56A12.73,12.73,0,0,1,93,155.89a19,19,0,0,1-6,.85H72.23V119.57Zm-5,6.45v9.19h4.49a14,14,0,0,0,2.58-.21,5.27,5.27,0,0,0,1.95-.71,3.25,3.25,0,0,0,1.22-1.4,5.12,5.12,0,0,0,.42-2.25,6.32,6.32,0,0,0-.33-2.2,3.15,3.15,0,0,0-1-1.42,4.29,4.29,0,0,0-1.75-.76,11.12,11.12,0,0,0-2.51-.23Zm6.07,24.22a7.56,7.56,0,0,0,2.79-.44,4.32,4.32,0,0,0,1.7-1.12,3.84,3.84,0,0,0,.85-1.56,6.91,6.91,0,0,0,.23-1.76,6.29,6.29,0,0,0-.27-1.83,3,3,0,0,0-.92-1.38,4.52,4.52,0,0,0-1.72-.87,10.23,10.23,0,0,0-2.7-.31h-6v9.27Z" fill="#fff"/>
    <path d="M139.11,156.74h-6.69a2.93,2.93,0,0,1-1.81-.52,3.25,3.25,0,0,1-1-1.34l-2.2-6.48H113.24l-2.2,6.48a3,3,0,0,1-1,1.29,2.82,2.82,0,0,1-1.8.57H101.5l14.39-37.17h8.83Zm-13.7-14.21L122,132.35q-.37-1-.81-2.28t-.87-2.85c-.26,1-.53,2-.82,2.88s-.56,1.66-.81,2.3l-3.42,10.13Z" fill="#fff"/>
    <path d="M174.5,119.57v37.17H170a3.8,3.8,0,0,1-1.67-.32,4,4,0,0,1-1.34-1.11l-17.53-22.17c.06.67.11,1.31.14,1.93s0,1.2,0,1.75v19.92h-7.6V119.57h4.53a6.05,6.05,0,0,1,.95.05,2.36,2.36,0,0,1,.69.19,2.31,2.31,0,0,1,.58.4,6,6,0,0,1,.64.69l17.68,22.32c-.08-.71-.14-1.4-.17-2.07s-.06-1.31-.06-1.9V119.57Z" fill="#fff"/>
  </g>
</svg>
